<?xml version="1.0" standalone="no"?><!DOCTYPE svg PUBLIC "-//W3C//DTD SVG 1.1//EN" "http://www.w3.org/Graphics/SVG/1.1/DTD/svg11.dtd"><svg t="1764223027748" class="icon" viewBox="0 0 1024 1024" version="1.1" xmlns="http://www.w3.org/2000/svg" p-id="5713" xmlns:xlink="http://www.w3.org/1999/xlink" width="200" height="200"><path d="M519.850667 60.16h-0.085334C387.84 61.098667 285.866667 105.514667 217.344 192.682667c-60.928 77.44-92.16 185.514667-93.184 319.573333v0.085333c1.066667 134.101333 32.256 241.578667 93.184 319.018667 68.522667 87.125333 171.050667 131.584 302.933333 132.48h0.085334c117.248-0.810667 200.405333-31.573333 268.928-100.010667 89.770667-89.728 87.125333-202.282667 57.472-271.488-22.613333-52.650667-67.2-94.762667-126.976-120.96-7.68-127.36-79.36-201.642667-197.12-202.410666-69.546667-0.426667-132.352 30.72-170.794667 89.045333l70.613333 48.469333c22.741333-34.517333 58.752-51.157333 99.626667-50.773333 59.178667 0.384 98.133333 33.024 109.013333 90.325333a500.821333 500.821333 0 0 0-105.984-4.48c-112.64 6.485333-186.368 73.045333-181.461333 165.333334 5.12 96.512 98.645333 149.12 187.434667 144.256 106.325333-5.845333 169.514667-84.309333 184.490666-184.362667 24.618667 15.914667 42.794667 36.266667 53.077334 60.288 18.773333 43.733333 19.968 115.882667-39.04 174.848-51.925333 51.882667-114.346667 74.496-209.578667 75.178667-105.6-0.768-184.832-34.602667-236.245333-99.968C235.52 715.690667 210.261333 626.688 209.322667 512c0.938667-114.688 26.197333-203.733333 74.496-265.088 51.413333-65.408 130.645333-99.2 236.245333-100.010667 106.368 0.810667 187.050667 34.773333 240.469333 100.522667 29.482667 36.266667 47.957333 79.616 60.288 124.373333l82.773334-22.058666c-15.488-57.088-39.978667-111.488-77.44-157.610667-70.528-86.784-174.122667-131.029333-306.346667-131.968z m10.069333 467.968a399.872 399.872 0 0 1 103.765333 6.656c-5.973333 67.328-33.834667 125.738667-107.178666 129.749333-47.445333 2.688-95.445333-18.517333-97.792-62.336-1.706667-32.597333 22.4-69.546667 101.205333-74.069333z" p-id="5714"></path></svg>